# xmcd
#
# Track frame offsets: 
#        150
#        26663
#        48922
#        73433
#        88465
#        110668
#        134163
#        156290
#        178269
#        197500
#        219809
#        243026
#        262065
#        285963
#        306648
#
# Disc length: 4347 seconds
#
# Revision: 0
# Processed by: cddbd v1.4PL0 Copyright (c) Steve Scherf et al.
# Submitted via: ExactAudioCopy v0.95a3
#
DISCID=ea10f90f
DTITLE=游鸿明 - 未知标题
DYEAR=1900
DGENRE=
TTITLE0=下沙
TTITLE1=21个人
TTITLE2=只是那个人
TTITLE3=寂寞化石
TTITLE4=寻你
TTITLE5=落单的候鸟
TTITLE6=荒芜心田
TTITLE7=四个冬季
TTITLE8=本来
TTITLE9=国王的新歌
TTITLE10=五月的雪
TTITLE11=七月一号
TTITLE12=爱巳到底
TTITLE13=爱可以疯
TTITLE14=孟婆汤
EXTD=
EXTT0=
EXTT1=
EXTT2=
EXTT3=
EXTT4=
EXTT5=
EXTT6=
EXTT7=
EXTT8=
EXTT9=
EXTT10=
EXTT11=
EXTT12=
EXTT13=
EXTT14=
PLAYORDER=
